<?xml version="1.0" encoding="UTF-8"?><svg id="Layer_1" xmlns="http://www.w3.org/2000/svg" width="1366" height="768" viewBox="0 0 1366 768"><defs><style>.cls-1{stroke-width:0px;}</style></defs><path class="cls-1" d="m64.7769,394.3828c-1.3643-1.9082-1.0913-4.0918,1.3643-7.3652l11.7314-13.9146c3.001-3.2744,5.1836-2.7285,7.3662-1.0918,9.5493,8.458,18.0068,12.8232,28.374,12.8232,9.5493,0,16.6426-3.2744,16.6426-11.7314,0-6.2754-3.5469-9.8223-12.0044-13.3691l-15.8237-6.8203c-14.7329-6.2754-24.5547-16.3691-24.5547-32.7393,0-25.6455,23.7363-43.9248,51.2915-43.9248,17.7339,0,33.8306,7.3662,43.1069,20.4619,1.3643,1.9092.8184,4.0928-1.0913,6.002l-14.46,14.46c-2.1826,2.1826-4.0923,1.9102-6.2749,0-6.8208-7.6387-13.6416-11.459-21.8262-11.459-9.8218,0-14.7329,5.7295-14.7329,12.0049,0,5.7295,4.3652,9.2764,11.7319,12.2773l17.188,7.3662c14.187,6.002,25.1001,15.2783,25.1001,33.2852,0,27.5552-24.8271,45.8345-55.1113,45.8345-22.0986,0-39.2871-9.8223-48.0176-22.0996Z"/><path class="cls-1" d="m190.5503,409.1152l17.4609-125.4995c.5459-2.4561,2.4556-4.0928,4.9111-4.0928h29.4653c2.4556,0,4.0923,1.6367,3.5469,4.0928l-17.4609,125.4995c-.5459,2.457-2.1826,4.0938-4.6382,4.0938h-29.4653c-2.4556,0-4.3652-1.6367-3.8198-4.0938Zm43.3799-195.0708c11.7314,0,20.4619,9.2764,20.4619,20.7354,0,11.7314-8.7305,21.0073-20.4619,21.0073-12.0044,0-21.0078-9.2759-21.0078-21.0073,0-11.459,9.0034-20.7354,21.0078-20.7354Z"/><path class="cls-1" d="m261.2114,409.1152l17.4609-125.4995c.2729-2.4561,2.1826-4.0928,4.6382-4.0928h28.3735c2.4561,0,3.8203,1.6367,3.5469,4.0928l-1.0908,13.6416c9.0029-12.2773,21.8262-21.0078,39.5596-21.0078,17.4609,0,30.0117,8.1846,35.4678,23.4629,9.2764-13.6416,23.7363-23.4629,44.1982-23.4629,28.9199,0,43.9248,19.6436,39.0137,54.5654l-10.9131,78.3003c-.2725,2.457-2.1826,4.0938-4.6377,4.0938h-29.4648c-2.4561,0-3.8203-1.6367-3.5469-4.0938l9.8213-69.5698c2.7285-18.8252-3.5469-28.6475-18.0068-28.6475-14.1865,0-23.1895,9.8223-25.6455,28.9199l-9.8213,69.2974c-.2734,2.457-2.1826,4.0938-4.6387,4.0938h-29.4648c-2.4561,0-3.8203-1.6367-3.5469-4.0938l9.8213-69.5698c2.7285-18.8252-3.5459-28.6475-18.0059-28.6475-14.1875,0-23.1904,9.8223-25.6465,28.6475l-9.8213,69.5698c-.2734,2.457-2.1826,4.0938-4.6382,4.0938h-29.4653c-2.4556,0-3.8193-1.6367-3.5469-4.0938Z"/><path class="cls-1" d="m486.2935,460.9531l24.8271-177.3374c.2725-2.4561,2.1826-4.0928,4.6377-4.0928h27.0107c2.4551,0,3.8193,1.6367,3.5459,4.0928l-1.3633,14.46c10.9131-13.6416,25.918-21.8262,46.1074-21.8262,33.8301,0,54.293,24.0088,54.293,60.0215,0,43.3799-29.4658,80.2114-72.2998,80.2114-19.0977,0-32.1934-7.3672-39.833-19.6426l-9.0029,64.1133c-.2725,2.4551-2.1826,4.0918-4.6377,4.0918h-29.7383c-2.4551,0-3.8193-1.6367-3.5469-4.0918Zm82.9395-78.8472c23.7363,0,39.0146-18.5518,39.0146-40.6514,0-18.8242-11.459-30.8291-29.7383-30.8291-19.6436,0-35.7402,14.1865-38.7412,35.7402-2.7285,21.5537,9.2754,35.7402,29.4648,35.7402Z"/><path class="cls-1" d="m661.7212,409.1152l26.1909-186.8857c.2734-2.4556,2.1836-4.0923,4.6387-4.0923h29.7383c2.4551,0,3.8203,1.6367,3.5469,4.0923l-26.1914,186.8857c-.5469,2.457-2.1836,4.0938-4.6387,4.0938h-29.7378c-2.4551,0-4.0928-1.6367-3.5469-4.0938Z"/><path class="cls-1" d="m732.9297,409.1152l17.4609-125.4995c.5449-2.4561,2.4551-4.0928,4.9102-4.0928h29.4648c2.457,0,4.0938,1.6367,3.5469,4.0928l-17.4609,125.4995c-.5449,2.457-2.1816,4.0938-4.6367,4.0938h-29.4668c-2.4551,0-4.3652-1.6367-3.8184-4.0938Zm43.3789-195.0708c11.7324,0,20.4629,9.2764,20.4629,20.7354,0,11.7314-8.7305,21.0073-20.4629,21.0073-12.0039,0-21.0078-9.2759-21.0078-21.0073,0-11.459,9.0039-20.7354,21.0078-20.7354Z"/><path class="cls-1" d="m805.2266,354.5503c0-42.5605,34.377-78.3008,77.7559-78.3008,22.6445,0,40.1055,9.5488,49.9277,23.7354,1.3652,1.9102,1.0918,4.0928-.8184,5.7295l-18.2793,16.3701c-2.4551,2.1826-5.7285,1.9092-7.3672,0-6.5469-6.8213-14.459-11.1865-25.6445-11.1865-22.6445,0-39.0137,18.5527-39.0137,39.833,0,18.0068,11.7305,31.1025,31.9199,31.1025,10.9121,0,19.3711-3.8193,27.5547-11.1855,2.457-2.1836,4.6387-2.4561,7.0938.2725l12.8242,15.5503c1.9082,2.1836,1.6367,4.3652-.2734,6.2754-13.0957,14.1875-30.8301,23.7363-53.748,23.7363-37.377,0-61.9316-25.918-61.9316-61.9321Z"/><path class="cls-1" d="m946.2773,409.1152l17.4609-125.4995c.5449-2.4561,2.4551-4.0928,4.9102-4.0928h29.4648c2.457,0,4.0938,1.6367,3.5469,4.0928l-17.4609,125.4995c-.5449,2.457-2.1816,4.0938-4.6367,4.0938h-29.4668c-2.4551,0-4.3652-1.6367-3.8184-4.0938Zm43.3789-195.0708c11.7324,0,20.4629,9.2764,20.4629,20.7354,0,11.7314-8.7305,21.0073-20.4629,21.0073-12.0039,0-21.0078-9.2759-21.0078-21.0073,0-11.459,9.0039-20.7354,21.0078-20.7354Z"/><path class="cls-1" d="m1031.6719,375.8315l9.5488-67.1162h-16.9141c-2.4551,0-3.8203-1.6367-3.5469-4.0918l2.7285-21.0078c.2715-2.4561,2.1816-4.0928,4.6367-4.0928h17.1895l4.3652-31.375c.2715-2.4551,2.1816-4.0923,4.6367-4.0923h29.7383c2.4551,0,3.8203,1.6372,3.5469,4.0923l-4.3652,31.375h20.7344c2.457,0,3.8203,1.6367,3.5469,4.0928l-3.2734,21.0078c-.2734,2.4551-2.1816,4.0918-4.6387,4.0918h-20.4609l-9.0039,63.0234c-1.0918,7.9121,3.002,11.7314,10.0957,11.7314,2.4551,0,5.1836,0,8.457-.2725,3.002-.2734,4.6387,1.0908,4.3652,3.8198l-2.7285,19.916c-.8184,6.2754-15.0059,7.9121-23.7363,7.9121-21.2793,0-39.0137-9.8223-34.9219-39.0142Z"/><path class="cls-1" d="m1131.2539,460.4082l25.6465-47.1992-33.0117-129.0474c-.8203-3.002.8184-4.6387,3.8184-4.6387h30.0117c2.1816,0,4.0918,1.0918,4.6367,3.2744l18.8262,87.0312,44.7441-87.0312c1.0898-2.1826,3-3.2744,5.1836-3.2744h30.0098c3.002,0,4.3652,1.6367,2.7285,4.6387l-95.7617,177.6099c-1.0918,2.1836-3.2734,3.2734-5.457,3.2734h-28.6465c-3.002,0-4.3652-1.6367-2.7285-4.6367Z"/><path class="cls-1" d="m1240.3867,394.3828c0-12.5493,10.0938-22.9165,22.3711-22.9165,12.5508,0,22.6445,10.3672,22.6445,22.9165,0,12.2773-10.0938,22.373-22.6445,22.373-12.2773,0-22.3711-10.0957-22.3711-22.373Z"/><path class="cls-1" d="m355.7148,575.8936v-30.9922c0-10.498-4.3613-16.3965-12.9844-16.3965-9.1191,0-13.084,5.0986-13.084,16.1963v31.1924h-10.3086v-32.1924c0-10.8975-5.0547-15.1963-12.4893-15.1963-9.1191,0-13.5791,5.3994-13.5791,16.2959v31.0928h-10.3091v-55.3867h9.5161v5.999h.1973c4.4609-5.2988,8.624-7.498,15.7607-7.498s14.2734,3.499,17.0488,9.2969c3.9648-6.2979,9.417-9.2969,18.1396-9.2969,14.2734,0,22.4004,8.9971,22.4004,23.2939v33.5918h-10.3086Z"/><path class="cls-1" d="m429.2676,575.8936v-8.5977h-.1982c-3.8662,6.5986-10.8037,9.9971-18.6348,9.9971-16.0576,0-29.1416-12.1973-29.1416-28.1934,0-17.6953,12.5879-30.0918,28.7451-30.0918,8.0283,0,14.7686,2.999,19.0312,9.2969h.1982v-7.7979h10.3086v55.3867h-10.3086Zm.1982-27.5928c0-10.7979-7.7314-19.7959-19.1299-19.7959-10.3086,0-18.7344,8.8984-18.7344,19.7959,0,10.3965,8.4258,19.4951,18.7344,19.4951,10.7051,0,19.1299-8.998,19.1299-19.4951Z"/><path class="cls-1" d="m459.3027,575.8936v-73.9814h10.3086v73.9814h-10.3086Zm32.5117,0l-22.0039-28.6934,19.5264-26.6934h12.1924l-19.9238,26.0938,23.0957,29.293h-12.8867Z"/><path class="cls-1" d="m520.4629,552.6992c2.3789,9.1973,9.6143,15.0967,18.0391,15.0967,6.4434,0,12.4902-3.3994,15.6621-9.2979h10.3086c-4.2627,11.3965-14.5713,18.7949-26.3672,18.7949-15.4629,0-27.9512-13.7969-27.9512-28.5928,0-17.4961,13.084-29.6924,27.6543-29.6924,16.1562,0,28.4473,12.5967,28.4473,28.4922,0,1.7002,0,3.2998-.2969,5.1992h-45.4961Zm35.4844-7.998c-.793-9.3975-9.0195-16.1963-17.8418-16.1963-8.4248,0-16.8496,6.6982-17.6426,16.1963h35.4844Z"/><path class="cls-1" d="m615.7227,514.1084v-12.1963h10.3086v12.1963h-10.3086Zm0,61.7852v-55.3867h10.3086v55.3867h-10.3086Z"/><path class="cls-1" d="m645.9551,575.8936v-45.8887h-7.4346v-9.498h7.4346v-18.5947h10.3086v18.5947h9.0195v9.498h-9.0195v45.8887h-10.3086Z"/><path class="cls-1" d="m732.9844,535.2031c-.4951-3.999-2.7754-6.6982-7.0371-6.6982-3.9648,0-6.4434,2.6992-6.4434,5.8984,0,4.6992,4.7578,6.0986,10.21,7.7988,7.7314,2.3994,14.8682,7.0977,14.8682,17.3955,0,10.6973-7.7314,17.6953-18.4365,17.6953-9.9121,0-19.4277-6.7979-19.4277-19.5947h10.3086c.4951,6.6982,3.8662,10.0977,9.3174,10.0977,4.7578,0,7.9297-3.0996,7.9297-7.5986,0-3.7988-2.875-6.2988-9.3174-8.3975-13.4805-4.2998-15.7607-10.1982-15.7607-16.4961,0-9.7979,8.2275-16.2959,17.248-16.2959,9.1191,0,16.5527,6.3984,16.8496,16.1953h-10.3086Z"/><path class="cls-1" d="m758.3613,514.1084v-12.1963h10.3086v12.1963h-10.3086Zm0,61.7852v-55.3867h10.3086v55.3867h-10.3086Z"/><path class="cls-1" d="m859.6641,575.8936v-30.9922c0-10.498-4.3613-16.3965-12.9844-16.3965-9.1191,0-13.084,5.0986-13.084,16.1963v31.1924h-10.3086v-32.1924c0-10.8975-5.0547-15.1963-12.4893-15.1963-9.1191,0-13.5791,5.3994-13.5791,16.2959v31.0928h-10.3086v-55.3867h9.5156v5.999h.1973c4.4609-5.2988,8.624-7.498,15.7607-7.498s14.2734,3.499,17.0488,9.2969c3.9648-6.2979,9.417-9.2969,18.1396-9.2969,14.2734,0,22.4004,8.9971,22.4004,23.2939v33.5918h-10.3086Z"/><path class="cls-1" d="m888.1172,594.3887v-73.8818h9.416v8.498h.1982c4.6592-6.6982,11.6963-9.9971,19.5264-9.9971,16.3555,0,28.4482,12.7969,28.4482,29.8926,0,15.5957-11.9932,28.3926-27.7539,28.3926-8.3262,0-15.7607-3.3984-19.3291-9.3975h-.1973v26.4932h-10.3086Zm47.2803-46.0879c0-10.0977-7.9297-19.7959-18.9326-19.7959-10.3086,0-18.2383,9.2979-18.2383,19.5957,0,10.7969,7.9297,19.6953,18.6348,19.6953,10.6064,0,18.5361-8.8984,18.5361-19.4951Z"/><path class="cls-1" d="m961.0723,575.8936v-73.9814h10.3086v73.9814h-10.3086Z"/><path class="cls-1" d="m997.1523,552.6992c2.3789,9.1973,9.6152,15.0967,18.041,15.0967,6.4424,0,12.4883-3.3994,15.6602-9.2979h10.3086c-4.2617,11.3965-14.5703,18.7949-26.3652,18.7949-15.4629,0-27.9531-13.7969-27.9531-28.5928,0-17.4961,13.084-29.6924,27.6553-29.6924,16.1572,0,28.4482,12.5967,28.4482,28.4922,0,1.7002,0,3.2998-.2979,5.1992h-45.4971Zm35.4863-7.998c-.793-9.3975-9.0205-16.1963-17.8418-16.1963-8.4258,0-16.8516,6.6982-17.6445,16.1963h35.4863Z"/><path class="cls-1" d="m1058.0176,575.8936v-12.1973h10.3086v12.1973h-10.3086Z"/></svg>