<?xml version="1.0" encoding="UTF-8"?><svg xmlns="http://www.w3.org/2000/svg" width="4333.7288" height="2979.8348" viewBox="0 0 4333.7288 2979.8348"><defs><style>.cls-1{fill:#fff;stroke:#000;stroke-miterlimit:10;stroke-width:17px;}</style></defs><rect class="cls-1" x="8.9788" y="8.5" width="873.7348" height="873.7348" rx="11" ry="11"/><rect class="cls-1" x="8.5" y="1051.79" width="873.7348" height="873.7348" rx="11" ry="11"/><rect class="cls-1" x="15.9686" y="2096.7262" width="873.7348" height="873.7348" rx="11" ry="11"/><path class="cls-1" d="m1967.8922,882.2348h-835.2905c-10.6161,0-19.2222-8.6061-19.2222-19.2222V27.7222c0-10.6161,8.6061-19.2222,19.2222-19.2222h197.4641c-29.707,0,657.0486,634.2002,657.0486,644.8163v209.6964c0,10.6161-8.6061,19.2222-19.2222,19.2222Z"/><path class="cls-1" d="m1964.3973,1941.2014h-835.2905c-10.6161,0-19.2222-8.6061-19.2222-19.2222v-835.2905c0-10.6161,8.6061-19.2222,19.2222-19.2222h197.4641c-29.707,0,657.0486,634.2002,657.0486,644.8163v209.6964c0,10.6161-8.6061,19.2222-19.2222,19.2222Z"/><path class="cls-1" d="m1964.3973,2096.7262h-835.2905c-10.6161,0-19.2222,8.6061-19.2222,19.2222v835.2905c0,10.6161,8.6061,19.2222,19.2222,19.2222h197.4641c-29.707,0,657.0486-634.2002,657.0486-644.8163v-209.6964c0-10.6161-8.6061-19.2222-19.2222-19.2222Z"/><path class="cls-1" d="m1967.8922,1056.9818h-835.2905c-10.6161,0-19.2222,8.6061-19.2222,19.2222v835.2905c0,10.6161,8.6061,19.2222,19.2222,19.2222h197.4641c-29.707,0,657.0486-634.2002,657.0486-644.8163v-209.6964c0-10.6161-8.6061-19.2222-19.2222-19.2222Z"/><rect class="cls-1" x="2315.6387" y="8.5" width="873.7348" height="873.7348" rx="11" ry="11"/><rect class="cls-1" x="2314.7999" y="1065.79" width="873.7348" height="873.7348" rx="11" ry="11"/><rect class="cls-1" x="2322.6286" y="2096.7262" width="873.7348" height="873.7348" rx="11" ry="11"/><path class="cls-1" d="m4306.0066,2971.3348h-835.2905c-10.6161,0-19.2222-13.6755-19.2222-30.5452v-1327.327c0-16.8696,8.6061-30.5452,19.2222-30.5452h197.4641c-29.707,0,657.0486,1007.7824,657.0486,1024.652v333.2202c0,16.8696-8.6061,30.5452-19.2222,30.5452Z"/><path class="cls-1" d="m4305.8489,30.7555h-835.2905c-10.6161,0-19.2222,13.6041-19.2222,30.3856v1320.3907c0,16.7815,8.6061,30.3856,19.2222,30.3856h197.4641c-29.707,0,657.0486-1002.516,657.0486-1019.2974V61.1411c0-16.7815-8.6061-30.3856-19.2222-30.3856Z"/></svg>