<?xml version="1.0" encoding="UTF-8"?><svg id="Layer_1" xmlns="http://www.w3.org/2000/svg" width="669.3276" height="304.6981" viewBox="0 0 669.3276 304.6981"><defs><style>.cls-1{fill:#fff;stroke:#000;stroke-miterlimit:10;}</style></defs><path class="cls-1" d="m35.7413,128.372c4.2779,29.2781,8.5558,58.5561,12.8337,87.8342-18.8747-24.5309-28.3667-56.1031-26.1489-86.9754,1.6265-22.641,10.4384-46.1498,29.1409-59.0136,14.1593-9.7389,32.3038-12.1945,49.3966-10.414,13.5236,1.4087,28.371,6.5973,33.9773,18.9844,5.8439,12.9119-.8368,28.0702-9.5117,39.278-21.4564,27.7212-54.187,43.8956-85.7509,59.1456,33.9302-27.4749,80.2885-38.9446,123.1154-30.4604,9.0951,1.8018,18.1902,4.5307,25.8279,9.7874s13.7038,13.3554,14.7998,22.5623c.7525,6.3212-.8337,12.6804-2.7832,18.7404-12.7038,39.4888-42.1409,73.2908-79.5099,91.2994s-82.1491,19.9728-120.9515,5.3054"/><path class="cls-1" d="m213.4716,207.7226c15.2213-2.332,26.1129-16.2062,31.9743-30.4459,1.4126-3.4317,2.6491-7.1625,1.9016-10.7976-.6639-3.2287-2.806-5.9345-5.0037-8.3912-3.7384-4.1792-9.468-8.3398-14.4695-5.805-1.6749.8488-2.9233,2.3371-4.0698,3.824-5.9816,7.7577-10.578,16.7351-12.3015,26.3783s-.4183,19.9796,4.5881,28.3998c5.9941,10.0813,17.2767,16.8068,28.9957,17.284,6.7345.2743,14.3734-2.0856,17.1852-8.2111"/><path class="cls-1" d="m208.0749,150.6082c10.5457-24.2981,23.014-47.7615,37.2501-70.0987"/><path class="cls-1" d="m274.8875,195.7958c16.6464-26.4967,28.0581-56.268,33.3874-87.1027,1.3453-7.7838,2.1233-16.4619-2.3774-22.9535-7.1956,5.6768-11.2589,14.3977-14.3062,23.0415-10.5786,30.0059-11.7807,63.2432-3.3973,93.9349,1.9869,7.274,4.6306,14.634,9.7715,20.1504s13.3246,8.7833,20.4261,6.2478c4.6351-1.6549,8.1504-5.4443,11.2365-9.2781,11.5044-14.2917,19.7847-31.1636,24.0515-49.0073,2.2504-9.4113,3.0543-20.3626-3.1746-27.7678-9.9437-.4036-17.5964,8.705-21.9223,17.6675-7.658,15.8659-10.1963,34.1545-7.1485,51.5062.8899,5.0661,2.3287,10.224,5.6089,14.186s8.7925,6.4431,13.6916,4.8757c4.8342-1.5466,7.7672-6.3888,9.7529-11.0598,5.975-14.0554,7.2551-30.0599,3.5901-44.8863-1.2567,15.8696,8.5301,31.2412,21.9506,39.8035s29.8811,11.1661,45.7974,10.855"/><path class="cls-1" d="m486.391,29.2669c6.1562,81.7355,21.487,162.7766,45.6123,241.1129"/><path class="cls-1" d="m513.2886,198.6503c-12.9244-68.7369,4.4936-142.622,46.7593-198.3482"/><path class="cls-1" d="m510.9886,159.3227c24.0475,54.8496,64.4451,102.4079,114.6826,135.0109"/></svg>