<?xml version="1.0" encoding="UTF-8"?><svg id="Layer_1" xmlns="http://www.w3.org/2000/svg" width="1000" height="1000" viewBox="0 0 1000 1000"><defs><style>.cls-1{stroke-width:0px;}</style></defs><g id="Icon"><rect class="cls-1" x="286.644" y="275.0845" width="103.0381" height="103.0381"/><path class="cls-1" d="m389.1821,275.5843v102.038h-102.038v-102.038h102.038m1-1h-104.038v104.038h104.038v-104.038h0Z"/><rect class="cls-1" x="448.481" y="275.0845" width="103.0376" height="103.0381"/><path class="cls-1" d="m551.019,275.5843v102.038h-102.038v-102.038h102.038m1-1h-104.038v104.038h104.038v-104.038h0Z"/><rect class="cls-1" x="610.3184" y="275.0845" width="103.0371" height="103.0381"/><path class="cls-1" d="m712.8559,275.5843v102.038h-102.038v-102.038h102.038m1-1h-104.038v104.038h104.038v-104.038h0Z"/><rect class="cls-1" x="286.644" y="448.481" width="103.0381" height="103.0376"/><path class="cls-1" d="m389.1821,448.981v102.038h-102.038v-102.038h102.038m1-1h-104.038v104.038h104.038v-104.038h0Z"/><rect class="cls-1" x="448.481" y="448.481" width="103.0376" height="103.0376"/><path class="cls-1" d="m551.019,448.981v102.038h-102.038v-102.038h102.038m1-1h-104.038v104.038h104.038v-104.038h0Z"/><rect class="cls-1" x="610.3184" y="448.481" width="103.0371" height="103.0376"/><path class="cls-1" d="m712.8559,448.981v102.038h-102.038v-102.038h102.038m1-1h-104.038v104.038h104.038v-104.038h0Z"/><rect class="cls-1" x="286.644" y="621.8779" width="103.0381" height="103.0381"/><path class="cls-1" d="m389.1821,622.3777v102.038h-102.038v-102.038h102.038m1-1h-104.038v104.038h104.038v-104.038h0Z"/><rect class="cls-1" x="448.481" y="621.8779" width="103.0376" height="103.0381"/><path class="cls-1" d="m551.019,622.3777v102.038h-102.038v-102.038h102.038m1-1h-104.038v104.038h104.038v-104.038h0Z"/><rect class="cls-1" x="610.3184" y="621.8779" width="103.0371" height="103.0381"/><path class="cls-1" d="m712.8559,622.3777v102.038h-102.038v-102.038h102.038m1-1h-104.038v104.038h104.038v-104.038h0Z"/></g></svg>